<svg width="65" height="65" viewBox="0 0 65 65" fill="none" xmlns="http://www.w3.org/2000/svg">
<path d="M28.9453 14.6631C28.9453 15.6058 29.3198 16.51 29.9865 17.1766C30.6531 17.8433 31.5572 18.2178 32.5 18.2178C33.4428 18.2178 34.3469 17.8433 35.0135 17.1766C35.6802 16.51 36.0547 15.6058 36.0547 14.6631C36.0547 13.7203 35.6802 12.8162 35.0135 12.1495C34.3469 11.4829 33.4428 11.1084 32.5 11.1084C31.5572 11.1084 30.6531 11.4829 29.9865 12.1495C29.3198 12.8162 28.9453 13.7203 28.9453 14.6631ZM28.9453 32.4365C28.9453 33.3793 29.3198 34.2834 29.9865 34.9501C30.6531 35.6167 31.5572 35.9912 32.5 35.9912C33.4428 35.9912 34.3469 35.6167 35.0135 34.9501C35.6802 34.2834 36.0547 33.3793 36.0547 32.4365C36.0547 31.4938 35.6802 30.5896 35.0135 29.923C34.3469 29.2563 33.4428 28.8818 32.5 28.8818C31.5572 28.8818 30.6531 29.2563 29.9865 29.923C29.3198 30.5896 28.9453 31.4938 28.9453 32.4365ZM28.9453 50.21C28.9453 51.1527 29.3198 52.0569 29.9865 52.7235C30.6531 53.3901 31.5572 53.7646 32.5 53.7646C33.4428 53.7646 34.3469 53.3901 35.0135 52.7235C35.6802 52.0569 36.0547 51.1527 36.0547 50.21C36.0547 49.2672 35.6802 48.3631 35.0135 47.6964C34.3469 47.0298 33.4428 46.6553 32.5 46.6553C31.5572 46.6553 30.6531 47.0298 29.9865 47.6964C29.3198 48.3631 28.9453 49.2672 28.9453 50.21Z" fill="#476042"/>
</svg>
