<svg width="65" height="65" viewBox="0 0 65 65" fill="none" xmlns="http://www.w3.org/2000/svg">
<path fill-rule="evenodd" clip-rule="evenodd" d="M35.2083 35.2083V54.1667C35.2083 54.885 34.923 55.5738 34.4151 56.0817C33.9072 56.5897 33.2183 56.875 32.5 56.875C31.7817 56.875 31.0928 56.5897 30.5849 56.0817C30.077 55.5738 29.7917 54.885 29.7917 54.1667V35.2083H10.8333C10.115 35.2083 9.42616 34.923 8.91825 34.4151C8.41034 33.9072 8.125 33.2183 8.125 32.5C8.125 31.7817 8.41034 31.0928 8.91825 30.5849C9.42616 30.077 10.115 29.7917 10.8333 29.7917H29.7917V10.8333C29.7917 10.115 30.077 9.42616 30.5849 8.91825C31.0928 8.41034 31.7817 8.125 32.5 8.125C33.2183 8.125 33.9072 8.41034 34.4151 8.91825C34.923 9.42616 35.2083 10.115 35.2083 10.8333V29.7917H54.1667C54.885 29.7917 55.5738 30.077 56.0817 30.5849C56.5897 31.0928 56.875 31.7817 56.875 32.5C56.875 33.2183 56.5897 33.9072 56.0817 34.4151C55.5738 34.923 54.885 35.2083 54.1667 35.2083H35.2083Z" fill="#476042"/>
</svg>
